<!-- This is a basic agriculture-themed SVG logo -->
<svg width="64" height="64" viewBox="0 0 64 64" xmlns="http://www.w3.org/2000/svg">
  <defs>
    <linearGradient id="leafGradient" x1="0%" y1="0%" x2="100%" y2="100%">
      <stop offset="0%" style="stop-color:#4CAF50" />
      <stop offset="100%" style="stop-color:#2E7D32" />
    </linearGradient>
  </defs>
  <!-- Leaf shape -->
  <path d="M32 8C45 8 52 16 56 32C52 48 45 56 32 56C19 56 12 48 8 32C12 16 19 8 32 8Z" fill="url(#leafGradient)" />
  <!-- Stem -->
  <path d="M30 30L32 48L34 30C34 25 33 22 32 20C31 22 30 25 30 30Z" fill="#795548" />
  <!-- Inner leaf detail -->
  <path d="M32 12C42 12 47 18 50 32C47 46 42 52 32 52" fill="none" stroke="#388E3C" stroke-width="2" />
</svg>